PathFileType	4	(X/Y/Z)	D:\Temporary Files\修改scale文件\BD0001.trc
DataRate	CameraRate	NumFrames	NumMarkers	Units	OrigDataRate	OrigDataStartFrame	OrigNumFrames
200.000000	200.000000	5	38	mm	200.000000	703	804
Frame#	Time	Top.Head			L.Acromium			R.Acromium			Sternum			L.ASIS			R.ASIS			V.Sacral			R.Knee.Lat			R.Knee.Med			L.Knee.Lat			L.Knee.Med			L.Ankle.Lat			L.Toe.Tip			R.Heel			R.Ankle.Med			R.Ankle.Lat			L.Toe.Med			L.Toe.Lat			L.Heel			L.Ankle.Med			L.Shank1			L.Shank2			R.Toe.Tip			R.Toe.Med			R.Toe.Lat			L.PSIS			R.PSIS			R.iliac.crest			L.iliac.crest			L.Shank3			L.Shank4			R.Shank4			L.Thigh4			R.Thigh4			R.Heel.Lat			R.Heel.Med			L.Heel.Lat			L.Heel.Med			
		X1	Y1	Z1	X2	Y2	Z2	X3	Y3	Z3	X4	Y4	Z4	X5	Y5	Z5	X6	Y6	Z6	X7	Y7	Z7	X8	Y8	Z8	X9	Y9	Z9	X10	Y10	Z10	X11	Y11	Z11	X12	Y12	Z12	X13	Y13	Z13	X14	Y14	Z14	X15	Y15	Z15	X16	Y16	Z16	X17	Y17	Z17	X18	Y18	Z18	X19	Y19	Z19	X20	Y20	Z20	X21	Y21	Z21	X22	Y22	Z22	X23	Y23	Z23	X24	Y24	Z24	X25	Y25	Z25	X26	Y26	Z26	X27	Y27	Z27	X28	Y28	Z28	X29	Y29	Z29	X30	Y30	Z30	X31	Y31	Z31	X32	Y32	Z32	X33	Y33	Z33	X34	Y34	Z34	X35	Y35	Z35	X36	Y36	Z36	X37	Y37	Z37	X38	Y38	Z38	
704	3.515	923.266071475204	1692.82501960756	-991.86807875405	933.272585509796	1410.55132696737	-817.139694381892	1091.42618798763	1400.51401808507	-1090.0027475965	900.081956381145	1359.26031809457	-1018.69273782837	804.830475886049	912.059318985817	-931.660576921472	927.458757206619	931.718016071059	-1133.68030444372	1009.10055653008	964.288968163376	-952.849775998117	1003.59117093635	475.050882478542	-1165.45741319668	948.459011671871	454.671603678118	-1065.42256263297	849.253984235487	476.059351600051	-847.019391652391	886.066797528036	456.882784997233	-949.934079142552	907.021581090492	102.774971208484	-808.644222483258	726.935194872778	56.4442030110699	-869.008023550632	1104.90864312858	34.3376338091401	-1104.19373061008	990.207939927679	103.173329238271	-1115.24990677394	1060.67028824654	104.866360716877	-1173.92595919102	786.911862864151	45.2934264194039	-907.83890465413	793.470123561661	46.3570907821322	-802.802546066252	1001.35601574554	31.441737416021	-814.562758675054	927.160372315786	104.547451332927	-894.556380412352	831.225333089917	388.285939242868	-837.278417612244	829.424513644307	307.643197285339	-819.197741058173	876.008994791344	54.5551158270076	-1277.26471394252	900.023192212425	44.5086055140629	-1205.40891801032	986.486051211655	37.43738188086	-1275.01920230306	975.852193242268	963.152523243015	-909.975399422861	1030.33765164392	964.693420653806	-998.950019239241	970.304017274651	988.939887169374	-1122.33130771898	834.940927722163	989.420812209344	-899.526749814764	883.608507740116	395.945556643962	-801.196177397335	885.423171921117	309.813577617616	-784.807579341777	1062.49524316124	317.362084423707	-1187.14545869466	838.767289704231	602.241911381922	-832.913929140613	1031.30176456374	568.350938913569	-1148.83379243345	1098.28815397887	32.1748274931227	-1172.66534755926	1024.78121404452	25.28401093878	-1101.00346606756	935.317735941394	22.2987106732325	-780.076108127066	956.500305045414	27.26844116145	-883.592489848496
705	3.52	923.238740591119	1692.82557633879	-991.88377202017	933.255399973899	1410.55316366185	-817.153089688725	1091.4118201792	1400.50752401678	-1090.00034236544	900.058186624915	1359.26067846862	-1018.70011077168	804.812851748296	912.056668024417	-931.668418105011	927.44684308881	931.712645553275	-1133.68165259361	1009.08719321543	964.289258535296	-952.849938233983	1003.5891777649	475.045196958994	-1165.45622031095	948.459689535987	454.664892434187	-1065.42261961459	849.242877135945	476.060976745722	-847.024540793254	886.062950733819	456.872558901693	-949.937261810468	907.022294997062	102.774613886454	-808.644421884793	726.937882741639	56.4397846145683	-869.007896819322	1104.90835575642	34.3363436315571	-1104.19585641653	990.209436777846	103.174694302398	-1115.25067556029	1060.66684286371	104.868233896503	-1173.93242630284	786.914679046622	45.2947746898448	-907.841954417039	793.469967252165	46.3564676768596	-802.801240737477	1001.35885372303	31.4439106063764	-814.562518573136	927.160800294096	104.548185003294	-894.555689834079	831.215652675575	388.282198160701	-837.280348244707	829.414952961244	307.639303232647	-819.203650443689	876.011236516969	54.5566714533832	-1277.26523275381	900.023339994837	44.5100178971383	-1205.41043147606	986.487104784466	37.4332564164932	-1275.01879600813	975.835727686933	963.151665823881	-909.977892145805	1030.32343620894	964.693170458994	-998.957478335732	970.28815450861	988.938270335729	-1122.33674181026	834.918256520904	989.420123338251	-899.535486919289	883.597053111526	395.943787361986	-801.200886560733	885.41908743021	309.808466734869	-784.811672691555	1062.49119843746	317.358046505322	-1187.14640425644	838.729429855588	602.294355737343	-832.88073794006	1031.29529489884	568.344027957869	-1148.83276254238	1098.2897003063	32.1715283536228	-1172.666019422	1024.78494255018	25.2849296928301	-1101.0038259375	935.319801259666	22.299293620728	-780.078143800397	956.503038204941	27.2667803017188	-883.592691522221
706	3.525	923.21141070011	1692.82750516097	-991.897373518324	933.234397629337	1410.55357023299	-817.166230541237	1091.39747901717	1400.50119898067	-1089.9959285572	900.033402515963	1359.25977464551	-1018.7073957569	804.796039523989	912.052620305199	-931.676551206907	927.436513260466	931.706745395981	-1133.68185908177	1009.07209051757	964.288789302924	-952.85079076121	1003.58539626954	475.04081958746	-1165.45691459918	948.460834798189	454.657228331515	-1065.42313734207	849.22860209951	476.062583981687	-847.028709738637	886.056391964693	456.864231858635	-949.941482888352	907.02520048866	102.779419765605	-808.641047829297	726.939755555356	56.4362027340521	-869.007982862465	1104.90766532041	34.3346195265045	-1104.19746830659	990.210461662364	103.179660513654	-1115.25331148647	1060.66585155996	104.875836743149	-1173.93832303592	786.917767709485	45.2946426809483	-907.843991965201	793.469959202023	46.3565718774346	-802.799720025804	1001.36289063763	31.4462614419348	-814.560868427623	927.162144036883	104.549574447462	-894.554554478506	831.203948176203	388.278818340029	-837.283219814863	829.404458740011	307.633647600707	-819.208901436645	876.01353116456	54.5578106904916	-1277.26601516615	900.022222827277	44.5134678350239	-1205.41171187862	986.488036073255	37.4302516609794	-1275.01820456719	975.818219320528	963.15187279041	-909.979618178858	1030.30974617666	964.696541428475	-998.963802652759	970.273738680286	988.936769046192	-1122.34086471006	834.897454475354	989.417927702257	-899.545958448376	883.582129646741	395.942163091784	-801.206174187039	885.413567438276	309.803381334163	-784.814189424822	1062.48446885225	317.35431581649	-1187.14899159951	838.699468449185	602.331299056022	-832.851163080935	1031.2868563037	568.340287389331	-1148.83393004048	1098.29080655487	32.1699887700396	-1172.66661598654	1024.78815404311	25.2850187804879	-1101.00376420985	935.322159789981	22.2997420517915	-780.079395955219	956.505935851918	27.2670950632044	-883.592778812712
707	3.53	923.184353084849	1692.83015583387	-991.908592084063	933.209138578173	1410.55253373841	-817.178892328781	1091.38216343316	1400.49588407787	-1089.9909846933	900.009137751824	1359.25761511937	-1018.71493799879	804.780262435118	912.046933512379	-931.68463391799	927.427247198872	931.70085772008	-1133.68182438548	1009.05426898464	964.287341872235	-952.851863090097	1003.57873370259	475.038997356161	-1165.45923796857	948.459901715494	454.649883256481	-1065.42456928475	849.210436319587	476.062636903719	-847.03258864728	886.04685039462	456.859515662674	-949.946584193445	907.030020981351	102.789971539912	-808.633933509554	726.940515607036	56.4336409423101	-869.008820641208	1104.90706680632	34.3326677324968	-1104.19814504064	990.211641039832	103.186336137336	-1115.25690334852	1060.6686382227	104.887684609062	-1173.94091098473	786.920233099153	45.2932369994248	-907.844953587923	793.470186264416	46.3570451243447	-802.798939425149	1001.36660568228	31.4481358688963	-814.558719692892	927.164467321442	104.550712040391	-894.553851740107	831.189763317437	388.275507937967	-837.287599274104	829.393469535745	307.626760044436	-819.213719150888	876.014538910651	54.5584707064832	-1277.26692549294	900.019950964602	44.5178315541022	-1205.41285179071	986.488828900143	37.4295381099349	-1275.01825853819	975.799198497133	963.153718879469	-909.981051662989	1030.29588186721	964.703242553838	-998.967911778084	970.260979711088	988.934636202178	-1122.34328522404	834.878152412061	989.413565578161	-899.557457493271	883.56464767115	395.940101352427	-801.211438269046	885.405308769856	309.799578933522	-784.816028501707	1062.47541632391	317.351630573413	-1187.15223089667	838.652249533698	602.38570088573	-832.810763016373	1031.27634391492	568.340314058965	-1148.83800106541	1098.29110590396	32.1696125718543	-1172.66723357436	1024.79009179266	25.2844872484515	-1101.00376278618	935.323615340409	22.2998498169903	-780.080084985922	956.508356727772	27.2685202583903	-883.592352069628
708	3.535	923.158036086171	1692.83291419516	-991.917532349897	933.180668993772	1410.55071336865	-817.191450945336	1091.36486647773	1400.49182566271	-1089.98672585874	899.986186906375	1359.25471347779	-1018.72344710535	804.76507670566	912.040215298686	-931.692585353301	927.418472092342	931.696439911544	-1133.68286921254	1009.03402667303	964.285464999461	-952.852717025571	1003.56854517366	475.040046310222	-1165.4626879841	948.454361860792	454.644331327763	-1065.42732160012	849.189065503326	476.061283792307	-847.037073166612	886.035020983385	456.859394215395	-949.952193231181	907.036766644024	102.806738204991	-808.623230291695	726.940341532423	56.4326723083255	-869.010799068349	1104.9068514565	34.3318526706977	-1104.19799722092	990.213130925291	103.192765080713	-1115.26061971927	1060.67286704261	104.9003411373	-1173.94003901197	786.921367093157	45.2914591283161	-907.845188690216	793.470441781634	46.3575193676859	-802.799372556881	1001.36865673283	31.4494544702558	-814.557422443425	927.165926661777	104.55100001469	-894.5541550993	831.173909417761	388.271860312151	-837.29359283919	829.38220955107	307.619596867254	-819.218711976461	876.013320386155	54.5593135913098	-1277.26791430031	900.016851369237	44.5221798889511	-1205.41421236878	986.489210715377	37.4318676167211	-1275.01953245338	975.778763328701	963.157203649349	-909.982042190962	1030.28116561675	964.711789613453	-998.969002759576	970.250339512716	988.931449650461	-1122.34417202978	834.859355602657	989.407392525035	-899.568722732685	883.546141548885	395.937458906623	-801.216234331958	885.393598495383	309.797231966094	-784.818419950368	1062.46455267414	317.350763639827	-1187.15595498609	838.556806813417	602.498238680247	-832.7430805586	1031.26410643999	568.342897559355	-1148.84444216125	1098.29042692104	32.1695533682904	-1172.66802264831	1024.79028684117	25.2842149392318	-1101.00416775788	935.324232439098	22.2994863588826	-780.08064793536	956.509017466744	27.2707735915123	-883.591687360162
